<svg xmlns="http://www.w3.org/2000/svg" xmlns:xlink="http://www.w3.org/1999/xlink" version="1.1" x="0px" y="0px" width="50.4px" height="50.4px" viewBox="0 0 50.4 50.4" enable-background="new 0 0 50.4 50.4" xml:space="preserve">
<g id="Layer_1">
	<g id="Layer_1_1_">
	</g>
	<g id="Layer_3">
	</g>
</g>
<g id="Layer_2">
	<path d="M43.707,43.242c-1.346-0.074-3.643,0.105-4.29,1.664c-0.11,0.248-0.4,0.363-0.641,0.261   c-0.249-0.104-0.362-0.389-0.263-0.638c0.654-1.562,2.371-2.324,5.147-2.259l-0.024-0.191c-0.052-0.356-1.335-8.735-9.896-9.572   c-2.81-0.287-4.715,1.154-6.069,2.166c-0.78,0.582-1.346,1.005-1.938,1.005c-0.467,0-0.916-0.251-1.487-0.57   c-0.777-0.435-1.744-0.975-2.961-0.975c-1.069,0-2.15,0.404-3.314,1.243c-1.874,1.345-3.173,5.532-3.186,5.572l-0.159,0.528   l-0.545-0.09c-0.077-0.012-2.283-0.259-4.181,0.968C8.123,43.509,6.145,47.98,5.22,50.4h45.142   C50.259,48.609,49.001,43.429,43.707,43.242z M34.595,42.996c-0.279,0-0.507-0.228-0.507-0.511c0-1.733-1.567-3.143-3.488-3.143   c-1.529,0-2.905,0.919-3.343,2.243c-0.003,0.01-0.013,0.01-0.017,0.018c1.01,0.889,1.659,2.176,1.659,3.622   c0,0.269-0.219,0.488-0.488,0.488c-0.269,0-0.488-0.22-0.488-0.488c0-2.136-1.738-3.876-3.875-3.876   c-1.693,0-3.219,1.129-3.709,2.747c-0.077,0.252-0.343,0.39-0.606,0.323c-0.258-0.079-0.403-0.349-0.327-0.609   c0.616-2.021,2.525-3.436,4.643-3.436c0.866,0,1.669,0.246,2.372,0.646c0.658-1.614,2.284-2.697,4.18-2.697   c2.486,0,4.505,1.866,4.505,4.162C35.105,42.768,34.881,42.996,34.595,42.996z"/>
	<path d="M5.454,33.451c-0.292,0-0.551-0.196-0.615-0.488c-0.098-0.324,0.094-0.683,0.453-0.781C5.323,32.15,5.359,32.15,5.39,32.15   c0.032,0,0.064,0,0.064,0c0.292,0,0.552,0.195,0.615,0.488c0.101,0.324-0.095,0.647-0.388,0.777H5.651   C5.618,33.416,5.486,33.451,5.454,33.451L5.454,33.451z M18.411,33.221c-0.229,0-0.458-0.158-0.584-0.389   c-0.067-0.161-0.067-0.323,0-0.487c0.064-0.164,0.162-0.293,0.322-0.356c0.033-0.032,0.229-0.067,0.293-0.067   c0.228,0,0.425,0.098,0.52,0.295c0.032,0.031,0.032,0.031,0.032,0.063c0.098,0.163,0.098,0.325,0.031,0.487   c-0.031,0.166-0.158,0.296-0.323,0.39C18.67,33.157,18.474,33.221,18.411,33.221L18.411,33.221z M3.278,33.093   c-0.062,0-0.258-0.066-0.291-0.066c-0.031-0.03-0.064-0.03-0.099-0.063c-0.13-0.098-0.193-0.228-0.257-0.357   c-0.034-0.162,0-0.325,0.064-0.486c0.127-0.197,0.324-0.326,0.583-0.326c0.033,0,0.099,0,0.167,0.035c0.063,0,0.095,0,0.127,0.033   c0.323,0.158,0.424,0.582,0.259,0.874C3.735,32.963,3.507,33.093,3.278,33.093L3.278,33.093z M7.306,32.181   c-0.166,0-0.324-0.062-0.458-0.162c-0.26-0.29-0.225-0.68,0-0.941c0.261-0.227,0.686-0.227,0.945,0.034   C8.02,31.37,8.02,31.761,7.76,32.019C7.661,32.119,7.503,32.181,7.306,32.181L7.306,32.181z M1.493,31.698   c-0.193,0-0.327-0.066-0.453-0.167c-0.032-0.029-0.032-0.029-0.068-0.063c-0.225-0.26-0.192-0.679,0.068-0.906   c0.291-0.229,0.712-0.197,0.938,0.063c0.229,0.26,0.197,0.682-0.062,0.906C1.785,31.632,1.623,31.698,1.493,31.698L1.493,31.698z    M17.141,31.34c-0.158,0-0.354-0.066-0.452-0.197c-0.031,0-0.031-0.03-0.067-0.064c-0.189-0.259-0.158-0.615,0.067-0.841   c0.228-0.23,0.618-0.23,0.878-0.032l0.032,0.032c0.129,0.127,0.196,0.29,0.196,0.452c0,0.195-0.067,0.359-0.196,0.453   C17.469,31.273,17.307,31.34,17.141,31.34L17.141,31.34z M8.929,30.591c-0.197,0-0.358-0.063-0.488-0.227   c-0.095-0.127-0.161-0.291-0.161-0.455c0.034-0.162,0.098-0.322,0.225-0.452c0.295-0.229,0.716-0.195,0.945,0.063   c0.095,0.129,0.162,0.326,0.127,0.486c0,0.161-0.063,0.293-0.159,0.392c0,0.03-0.035,0.03-0.066,0.064   C9.252,30.561,9.09,30.591,8.929,30.591L8.929,30.591z M15.325,30.038c-0.066,0-0.225-0.062-0.291-0.062   c-0.162-0.099-0.292-0.229-0.326-0.389c-0.063-0.163-0.063-0.325,0.034-0.49c0.098-0.226,0.323-0.354,0.583-0.354   c0.035,0,0.228,0.03,0.261,0.064c0.326,0.16,0.453,0.519,0.326,0.843C15.779,29.877,15.553,30.038,15.325,30.038L15.325,30.038z    M0.682,29.618H0.647c-0.158,0-0.324-0.063-0.45-0.194C0.063,29.325,0,29.133,0,28.967c0.032-0.354,0.323-0.612,0.647-0.612   c0.362,0,0.654,0.289,0.654,0.612v0.037l0,0l0,0l0,0l0,0C1.301,29.358,1.009,29.618,0.682,29.618L0.682,29.618z M10.907,29.487   c-0.292,0-0.551-0.192-0.646-0.483c-0.098-0.328,0.095-0.684,0.454-0.78c0.033-0.032,0.129-0.032,0.161-0.032   c0.292,0,0.552,0.192,0.649,0.452c0.035,0.163,0.035,0.36-0.066,0.489c-0.063,0.162-0.193,0.261-0.324,0.291   c-0.032,0.033-0.032,0.033-0.095,0.033L10.907,29.487L10.907,29.487z M13.15,29.393h-0.067c-0.031,0-0.094,0-0.158-0.035   c-0.296-0.097-0.457-0.392-0.425-0.683c0.031-0.321,0.323-0.583,0.649-0.583c0,0,0.035,0.03,0.066,0.03h0.032   c0.324,0.033,0.583,0.359,0.551,0.714C13.736,29.165,13.477,29.393,13.15,29.393L13.15,29.393z M1.426,27.539   c-0.16,0-0.259-0.065-0.386-0.128c-0.134-0.099-0.228-0.26-0.26-0.422c-0.033-0.162,0-0.328,0.094-0.489   c0.197-0.259,0.619-0.354,0.91-0.159c0.13,0.096,0.225,0.226,0.259,0.388c0.033,0.161,0,0.325-0.066,0.454   c0,0.03-0.031,0.067-0.031,0.067C1.82,27.442,1.623,27.539,1.426,27.539L1.426,27.539z M2.987,25.885   c-0.229,0-0.422-0.099-0.52-0.26c-0.131-0.13-0.163-0.327-0.131-0.487c0.035-0.194,0.131-0.324,0.26-0.424   c0.034-0.029,0.034-0.029,0.066-0.029c0.292-0.163,0.647-0.099,0.844,0.161c0.096,0.129,0.126,0.292,0.096,0.452   c0,0.197-0.096,0.357-0.226,0.457C3.247,25.85,3.117,25.885,2.987,25.885L2.987,25.885z"/>
	<path d="M20.878,26.827c-0.031,0-0.13,0-0.161,0c-0.163-0.033-0.328-0.166-0.391-0.295c-0.095-0.162-0.13-0.323-0.095-0.485   c0.064-0.292,0.323-0.52,0.647-0.52c0,0,0.13,0.029,0.165,0.029c0.16,0.034,0.292,0.163,0.387,0.294   c0.098,0.164,0.098,0.327,0.064,0.52C21.429,26.63,21.169,26.827,20.878,26.827L20.878,26.827z M12.046,25.074   c-0.194,0-0.39-0.099-0.52-0.26c-0.098-0.167-0.161-0.328-0.129-0.489c0.031-0.192,0.129-0.323,0.259-0.421   c0.26-0.194,0.717-0.162,0.907,0.13c0,0.031,0.035,0.031,0.035,0.063c0.066,0.13,0.098,0.26,0.098,0.425   c-0.032,0.163-0.133,0.324-0.292,0.423C12.306,25.04,12.176,25.074,12.046,25.074L12.046,25.074z M21.137,24.586L21.137,24.586   c-0.196,0-0.354-0.064-0.456-0.195c-0.127-0.131-0.191-0.294-0.158-0.455c0-0.355,0.26-0.65,0.614-0.65   c0.391,0,0.683,0.295,0.683,0.65C21.788,24.325,21.493,24.586,21.137,24.586L21.137,24.586z M11.267,22.962L11.267,22.962   c-0.359,0-0.651-0.26-0.651-0.62c0-0.161,0.032-0.323,0.166-0.452c0.126-0.128,0.292-0.229,0.454-0.229l0,0   c0.389,0,0.681,0.293,0.681,0.651c0,0.358-0.26,0.65-0.615,0.65H11.267L11.267,22.962z M20.878,22.342   c-0.292,0-0.552-0.193-0.615-0.452c-0.098-0.356,0.096-0.713,0.418-0.813c0.036-0.031,0.166-0.031,0.197-0.031   c0.292,0,0.552,0.193,0.616,0.454c0.066,0.161,0.034,0.36-0.032,0.487c-0.096,0.162-0.225,0.292-0.388,0.325   C21.042,22.312,20.909,22.342,20.878,22.342L20.878,22.342z M11.885,20.82c-0.133,0-0.26-0.034-0.358-0.1   c-0.291-0.192-0.39-0.586-0.193-0.908c0.161-0.26,0.583-0.358,0.875-0.195c0.324,0.195,0.421,0.585,0.229,0.91   C12.306,20.72,12.113,20.82,11.885,20.82L11.885,20.82z M19.774,20.366c-0.162,0-0.292-0.069-0.422-0.163   c0,0-0.035-0.035-0.066-0.035c-0.095-0.13-0.161-0.291-0.161-0.454c0.035-0.193,0.098-0.358,0.228-0.488   c0.226-0.194,0.683-0.194,0.911,0.035c0.033,0.031,0.033,0.063,0.033,0.063c0.094,0.129,0.129,0.26,0.129,0.42   c0,0.162-0.066,0.328-0.193,0.458C20.098,20.297,19.936,20.366,19.774,20.366L19.774,20.366z M13.508,19.261   c-0.229,0-0.425-0.132-0.551-0.327c-0.099-0.131-0.133-0.325-0.067-0.484c0.036-0.198,0.13-0.326,0.295-0.391   c0.257-0.197,0.711-0.066,0.876,0.225c0.193,0.295,0.064,0.716-0.229,0.879C13.736,19.226,13.635,19.261,13.508,19.261   L13.508,19.261z M17.891,19.163c-0.032,0-0.197-0.034-0.229-0.034c-0.032-0.034-0.063-0.034-0.063-0.065   c-0.13-0.064-0.229-0.163-0.292-0.292c-0.063-0.163-0.063-0.358,0-0.521c0.062-0.226,0.323-0.389,0.584-0.389   c0.031,0,0.196,0,0.228,0.035c0.162,0.063,0.292,0.162,0.355,0.325c0.098,0.16,0.098,0.357,0.031,0.517   C18.411,18.965,18.183,19.163,17.891,19.163L17.891,19.163z M15.683,18.71h-0.031c-0.359,0-0.653-0.328-0.618-0.65   c0.031-0.358,0.291-0.649,0.649-0.649c0.386,0.031,0.647,0.358,0.647,0.713C16.3,18.45,16.007,18.71,15.683,18.71L15.683,18.71z"/>
	<path d="M5.517,22.193c0.32-0.452,0.459-0.856,0.309-1.001c-0.149-0.146-0.54,0.01-0.975,0.343   c-0.031-0.422-0.361-0.763-0.792-0.763c-0.45,0-0.812,0.363-0.812,0.812c0,0.426,0.339,0.759,0.761,0.789   c-0.405,0.52-0.6,1-0.432,1.165c0.159,0.152,0.577-0.019,1.044-0.391c0.101,0.333,0.357,0.602,0.725,0.602   c0.448,0,0.812-0.364,0.812-0.811C6.158,22.555,5.872,22.282,5.517,22.193z"/>
	<path d="M24.543,29.009c0.038-0.447-0.291-0.841-0.736-0.886c-0.38-0.03-0.678,0.228-0.798,0.571   c-0.425-0.357-0.812-0.537-0.972-0.399c-0.158,0.137-0.037,0.542,0.254,1.006c-0.422-0.01-0.793,0.288-0.831,0.719   c-0.044,0.445,0.284,0.839,0.735,0.879c0.424,0.037,0.787-0.271,0.854-0.688c0.479,0.453,0.938,0.69,1.118,0.536   c0.166-0.14,0.033-0.579-0.292-1.073C24.217,29.605,24.509,29.373,24.543,29.009z"/>
	<path d="M13.642,34.659c-0.349-0.262-0.818-0.184-1.094,0.13c-0.147-0.526-0.366-0.888-0.574-0.859   c-0.206,0.022-0.34,0.43-0.359,0.988c-0.333-0.146-0.726-0.099-0.954,0.205c-0.267,0.354-0.197,0.865,0.159,1.135   c0.292,0.223,0.659,0.165,0.938-0.04c0.146,0.571,0.38,0.963,0.596,0.935c0.241-0.024,0.374-0.526,0.358-1.186   c0.352,0.227,0.825,0.166,1.082-0.175C14.066,35.434,13.997,34.927,13.642,34.659z"/>
</g>
</svg>